<mxfile host="Electron" agent="Mozilla/5.0 (Windows NT 10.0; Win64; x64) AppleWebKit/537.36 (KHTML, like Gecko) draw.io/24.7.8 Chrome/128.0.6613.36 Electron/32.0.1 Safari/537.36" version="24.7.8">
  <diagram id="kzwBUI8nKqK5ffFbKFHB" name="Page-1">
    <mxGraphModel dx="2292" dy="957" grid="1" gridSize="10" guides="1" tooltips="1" connect="1" arrows="1" fold="1" page="0" pageScale="1" pageWidth="850" pageHeight="1100" math="0" shadow="0">
      <root>
        <mxCell id="0" />
        <mxCell id="1" parent="0" />
        <mxCell id="1Z-v9feT9iV5zxbu_Myu-7" value="AuthenticationController" style="swimlane;fontStyle=1;align=center;verticalAlign=top;childLayout=stackLayout;horizontal=1;startSize=26;horizontalStack=0;resizeParent=1;resizeParentMax=0;resizeLast=0;collapsible=1;marginBottom=0;whiteSpace=wrap;html=1;perimeterSpacing=1;swimlaneFillColor=none;gradientColor=none;swimlaneLine=1;" vertex="1" parent="1">
          <mxGeometry x="-200" y="240" width="200" height="60" as="geometry" />
        </mxCell>
        <mxCell id="1Z-v9feT9iV5zxbu_Myu-8" value="+&amp;nbsp;signIn()" style="text;strokeColor=none;fillColor=none;align=left;verticalAlign=top;spacingLeft=4;spacingRight=4;overflow=hidden;rotatable=0;points=[[0,0.5],[1,0.5]];portConstraint=eastwest;whiteSpace=wrap;html=1;" vertex="1" parent="1Z-v9feT9iV5zxbu_Myu-7">
          <mxGeometry y="26" width="200" height="26" as="geometry" />
        </mxCell>
        <mxCell id="1Z-v9feT9iV5zxbu_Myu-9" value="" style="line;strokeWidth=1;fillColor=none;align=left;verticalAlign=middle;spacingTop=-1;spacingLeft=3;spacingRight=3;rotatable=0;labelPosition=right;points=[];portConstraint=eastwest;strokeColor=inherit;" vertex="1" parent="1Z-v9feT9iV5zxbu_Myu-7">
          <mxGeometry y="52" width="200" height="8" as="geometry" />
        </mxCell>
        <mxCell id="1Z-v9feT9iV5zxbu_Myu-13" value="{ email, password }" style="edgeStyle=orthogonalEdgeStyle;rounded=0;orthogonalLoop=1;jettySize=auto;html=1;fontSize=12;" edge="1" parent="1" source="1Z-v9feT9iV5zxbu_Myu-12" target="1Z-v9feT9iV5zxbu_Myu-8">
          <mxGeometry x="-0.0698" y="-10" relative="1" as="geometry">
            <mxPoint x="10" y="-10" as="offset" />
          </mxGeometry>
        </mxCell>
        <mxCell id="1Z-v9feT9iV5zxbu_Myu-12" value="POST /sign-in" style="strokeWidth=2;html=1;shape=mxgraph.flowchart.start_1;whiteSpace=wrap;" vertex="1" parent="1">
          <mxGeometry x="-440" y="240" width="120" height="60" as="geometry" />
        </mxCell>
        <mxCell id="1Z-v9feT9iV5zxbu_Myu-14" value="AuthenticationService" style="swimlane;fontStyle=1;align=center;verticalAlign=top;childLayout=stackLayout;horizontal=1;startSize=26;horizontalStack=0;resizeParent=1;resizeParentMax=0;resizeLast=0;collapsible=1;marginBottom=0;whiteSpace=wrap;html=1;perimeterSpacing=1;swimlaneFillColor=none;gradientColor=none;swimlaneLine=1;" vertex="1" parent="1">
          <mxGeometry x="80" y="240" width="240" height="60" as="geometry" />
        </mxCell>
        <mxCell id="1Z-v9feT9iV5zxbu_Myu-15" value="+&amp;nbsp;signIn(email: string, password: string)" style="text;strokeColor=none;fillColor=none;align=left;verticalAlign=top;spacingLeft=4;spacingRight=4;overflow=hidden;rotatable=0;points=[[0,0.5],[1,0.5]];portConstraint=eastwest;whiteSpace=wrap;html=1;" vertex="1" parent="1Z-v9feT9iV5zxbu_Myu-14">
          <mxGeometry y="26" width="240" height="26" as="geometry" />
        </mxCell>
        <mxCell id="1Z-v9feT9iV5zxbu_Myu-16" value="" style="line;strokeWidth=1;fillColor=none;align=left;verticalAlign=middle;spacingTop=-1;spacingLeft=3;spacingRight=3;rotatable=0;labelPosition=right;points=[];portConstraint=eastwest;strokeColor=inherit;" vertex="1" parent="1Z-v9feT9iV5zxbu_Myu-14">
          <mxGeometry y="52" width="240" height="8" as="geometry" />
        </mxCell>
        <mxCell id="1Z-v9feT9iV5zxbu_Myu-17" value="JwtService" style="swimlane;fontStyle=1;align=center;verticalAlign=top;childLayout=stackLayout;horizontal=1;startSize=26;horizontalStack=0;resizeParent=1;resizeParentMax=0;resizeLast=0;collapsible=1;marginBottom=0;whiteSpace=wrap;html=1;perimeterSpacing=1;swimlaneFillColor=none;gradientColor=none;swimlaneLine=1;" vertex="1" parent="1">
          <mxGeometry x="440" y="240" width="200" height="60" as="geometry" />
        </mxCell>
        <mxCell id="1Z-v9feT9iV5zxbu_Myu-18" value="+&amp;nbsp;signAsync()" style="text;strokeColor=none;fillColor=none;align=left;verticalAlign=top;spacingLeft=4;spacingRight=4;overflow=hidden;rotatable=0;points=[[0,0.5],[1,0.5]];portConstraint=eastwest;whiteSpace=wrap;html=1;" vertex="1" parent="1Z-v9feT9iV5zxbu_Myu-17">
          <mxGeometry y="26" width="200" height="26" as="geometry" />
        </mxCell>
        <mxCell id="1Z-v9feT9iV5zxbu_Myu-19" value="" style="line;strokeWidth=1;fillColor=none;align=left;verticalAlign=middle;spacingTop=-1;spacingLeft=3;spacingRight=3;rotatable=0;labelPosition=right;points=[];portConstraint=eastwest;strokeColor=inherit;" vertex="1" parent="1Z-v9feT9iV5zxbu_Myu-17">
          <mxGeometry y="52" width="200" height="8" as="geometry" />
        </mxCell>
        <mxCell id="1Z-v9feT9iV5zxbu_Myu-20" value="UsersService" style="swimlane;fontStyle=1;align=center;verticalAlign=top;childLayout=stackLayout;horizontal=1;startSize=26;horizontalStack=0;resizeParent=1;resizeParentMax=0;resizeLast=0;collapsible=1;marginBottom=0;whiteSpace=wrap;html=1;perimeterSpacing=1;swimlaneFillColor=none;gradientColor=none;swimlaneLine=1;" vertex="1" parent="1">
          <mxGeometry x="440" y="120" width="200" height="60" as="geometry" />
        </mxCell>
        <mxCell id="1Z-v9feT9iV5zxbu_Myu-21" value="+&amp;nbsp;findOneByEmail(email: string)" style="text;strokeColor=none;fillColor=none;align=left;verticalAlign=top;spacingLeft=4;spacingRight=4;overflow=hidden;rotatable=0;points=[[0,0.5],[1,0.5]];portConstraint=eastwest;whiteSpace=wrap;html=1;" vertex="1" parent="1Z-v9feT9iV5zxbu_Myu-20">
          <mxGeometry y="26" width="200" height="26" as="geometry" />
        </mxCell>
        <mxCell id="1Z-v9feT9iV5zxbu_Myu-22" value="" style="line;strokeWidth=1;fillColor=none;align=left;verticalAlign=middle;spacingTop=-1;spacingLeft=3;spacingRight=3;rotatable=0;labelPosition=right;points=[];portConstraint=eastwest;strokeColor=inherit;" vertex="1" parent="1Z-v9feT9iV5zxbu_Myu-20">
          <mxGeometry y="52" width="200" height="8" as="geometry" />
        </mxCell>
        <mxCell id="1Z-v9feT9iV5zxbu_Myu-23" value="then compares `password`" style="edgeStyle=orthogonalEdgeStyle;rounded=0;orthogonalLoop=1;jettySize=auto;html=1;fontSize=12;" edge="1" parent="1" source="1Z-v9feT9iV5zxbu_Myu-15" target="1Z-v9feT9iV5zxbu_Myu-21">
          <mxGeometry relative="1" as="geometry" />
        </mxCell>
        <mxCell id="1Z-v9feT9iV5zxbu_Myu-24" style="edgeStyle=orthogonalEdgeStyle;rounded=0;orthogonalLoop=1;jettySize=auto;html=1;" edge="1" parent="1" source="1Z-v9feT9iV5zxbu_Myu-15" target="1Z-v9feT9iV5zxbu_Myu-18">
          <mxGeometry relative="1" as="geometry" />
        </mxCell>
        <mxCell id="1Z-v9feT9iV5zxbu_Myu-27" value="{&amp;nbsp;access_token }" style="edgeStyle=orthogonalEdgeStyle;rounded=0;orthogonalLoop=1;jettySize=auto;html=1;fontSize=12;" edge="1" parent="1" source="1Z-v9feT9iV5zxbu_Myu-18" target="1Z-v9feT9iV5zxbu_Myu-15">
          <mxGeometry relative="1" as="geometry">
            <Array as="points">
              <mxPoint x="540" y="340" />
              <mxPoint x="200" y="340" />
            </Array>
          </mxGeometry>
        </mxCell>
        <mxCell id="1Z-v9feT9iV5zxbu_Myu-28" style="edgeStyle=orthogonalEdgeStyle;rounded=0;orthogonalLoop=1;jettySize=auto;html=1;" edge="1" parent="1" source="1Z-v9feT9iV5zxbu_Myu-8" target="1Z-v9feT9iV5zxbu_Myu-15">
          <mxGeometry relative="1" as="geometry" />
        </mxCell>
        <mxCell id="1Z-v9feT9iV5zxbu_Myu-29" style="edgeStyle=orthogonalEdgeStyle;rounded=0;orthogonalLoop=1;jettySize=auto;html=1;" edge="1" parent="1" source="1Z-v9feT9iV5zxbu_Myu-15" target="1Z-v9feT9iV5zxbu_Myu-8">
          <mxGeometry relative="1" as="geometry">
            <Array as="points">
              <mxPoint x="200" y="340" />
              <mxPoint x="-100" y="340" />
            </Array>
          </mxGeometry>
        </mxCell>
        <mxCell id="1Z-v9feT9iV5zxbu_Myu-30" style="edgeStyle=orthogonalEdgeStyle;rounded=0;orthogonalLoop=1;jettySize=auto;html=1;" edge="1" parent="1" source="1Z-v9feT9iV5zxbu_Myu-8" target="1Z-v9feT9iV5zxbu_Myu-12">
          <mxGeometry relative="1" as="geometry">
            <Array as="points">
              <mxPoint x="-100" y="340" />
              <mxPoint x="-380" y="340" />
            </Array>
          </mxGeometry>
        </mxCell>
        <mxCell id="1Z-v9feT9iV5zxbu_Myu-31" value="NotesController" style="swimlane;fontStyle=1;align=center;verticalAlign=top;childLayout=stackLayout;horizontal=1;startSize=26;horizontalStack=0;resizeParent=1;resizeParentMax=0;resizeLast=0;collapsible=1;marginBottom=0;whiteSpace=wrap;html=1;perimeterSpacing=1;swimlaneFillColor=none;gradientColor=none;swimlaneLine=1;" vertex="1" parent="1">
          <mxGeometry x="320" y="600" width="200" height="60" as="geometry" />
        </mxCell>
        <mxCell id="1Z-v9feT9iV5zxbu_Myu-32" value="+&amp;nbsp;findAll()" style="text;strokeColor=none;fillColor=none;align=left;verticalAlign=top;spacingLeft=4;spacingRight=4;overflow=hidden;rotatable=0;points=[[0,0.5],[1,0.5]];portConstraint=eastwest;whiteSpace=wrap;html=1;" vertex="1" parent="1Z-v9feT9iV5zxbu_Myu-31">
          <mxGeometry y="26" width="200" height="26" as="geometry" />
        </mxCell>
        <mxCell id="1Z-v9feT9iV5zxbu_Myu-33" value="" style="line;strokeWidth=1;fillColor=none;align=left;verticalAlign=middle;spacingTop=-1;spacingLeft=3;spacingRight=3;rotatable=0;labelPosition=right;points=[];portConstraint=eastwest;strokeColor=inherit;" vertex="1" parent="1Z-v9feT9iV5zxbu_Myu-31">
          <mxGeometry y="52" width="200" height="8" as="geometry" />
        </mxCell>
        <mxCell id="1Z-v9feT9iV5zxbu_Myu-35" value="headers.authorization: &quot;Bearer {{access token}}&quot;" style="edgeStyle=orthogonalEdgeStyle;rounded=0;orthogonalLoop=1;jettySize=auto;html=1;fontSize=12;" edge="1" parent="1" source="1Z-v9feT9iV5zxbu_Myu-34" target="1Z-v9feT9iV5zxbu_Myu-37">
          <mxGeometry x="-0.3798" y="50" relative="1" as="geometry">
            <mxPoint as="offset" />
          </mxGeometry>
        </mxCell>
        <mxCell id="1Z-v9feT9iV5zxbu_Myu-34" value="GET /notes" style="strokeWidth=2;html=1;shape=mxgraph.flowchart.start_1;whiteSpace=wrap;" vertex="1" parent="1">
          <mxGeometry x="-440" y="480" width="120" height="60" as="geometry" />
        </mxCell>
        <mxCell id="1Z-v9feT9iV5zxbu_Myu-36" value="AuthenticationMiddleware" style="swimlane;fontStyle=1;align=center;verticalAlign=top;childLayout=stackLayout;horizontal=1;startSize=26;horizontalStack=0;resizeParent=1;resizeParentMax=0;resizeLast=0;collapsible=1;marginBottom=0;whiteSpace=wrap;html=1;perimeterSpacing=1;swimlaneFillColor=none;gradientColor=none;swimlaneLine=1;" vertex="1" parent="1">
          <mxGeometry x="-200" y="480" width="400" height="60" as="geometry" />
        </mxCell>
        <mxCell id="1Z-v9feT9iV5zxbu_Myu-37" value="+&amp;nbsp;use(req: RequestWithCurrentUser, res: Response, next: NextFunction)" style="text;strokeColor=none;fillColor=none;align=left;verticalAlign=top;spacingLeft=4;spacingRight=4;overflow=hidden;rotatable=0;points=[[0,0.5],[1,0.5]];portConstraint=eastwest;whiteSpace=wrap;html=1;" vertex="1" parent="1Z-v9feT9iV5zxbu_Myu-36">
          <mxGeometry y="26" width="400" height="26" as="geometry" />
        </mxCell>
        <mxCell id="1Z-v9feT9iV5zxbu_Myu-38" value="" style="line;strokeWidth=1;fillColor=none;align=left;verticalAlign=middle;spacingTop=-1;spacingLeft=3;spacingRight=3;rotatable=0;labelPosition=right;points=[];portConstraint=eastwest;strokeColor=inherit;" vertex="1" parent="1Z-v9feT9iV5zxbu_Myu-36">
          <mxGeometry y="52" width="400" height="8" as="geometry" />
        </mxCell>
        <mxCell id="1Z-v9feT9iV5zxbu_Myu-39" value="NestMiddleware" style="swimlane;fontStyle=1;align=center;verticalAlign=top;childLayout=stackLayout;horizontal=1;startSize=26;horizontalStack=0;resizeParent=1;resizeParentMax=0;resizeLast=0;collapsible=1;marginBottom=0;whiteSpace=wrap;html=1;perimeterSpacing=1;swimlaneFillColor=none;gradientColor=none;swimlaneLine=1;" vertex="1" parent="1">
          <mxGeometry x="-200" y="640" width="440" height="64" as="geometry" />
        </mxCell>
        <mxCell id="1Z-v9feT9iV5zxbu_Myu-40" value="+&amp;nbsp;use(req: TRequest, res: TResponse, next: (error?: Error | any) =&amp;gt; void): any;" style="text;strokeColor=none;fillColor=none;align=left;verticalAlign=top;spacingLeft=4;spacingRight=4;overflow=hidden;rotatable=0;points=[[0,0.5],[1,0.5]];portConstraint=eastwest;whiteSpace=wrap;html=1;" vertex="1" parent="1Z-v9feT9iV5zxbu_Myu-39">
          <mxGeometry y="26" width="440" height="30" as="geometry" />
        </mxCell>
        <mxCell id="1Z-v9feT9iV5zxbu_Myu-41" value="" style="line;strokeWidth=1;fillColor=none;align=left;verticalAlign=middle;spacingTop=-1;spacingLeft=3;spacingRight=3;rotatable=0;labelPosition=right;points=[];portConstraint=eastwest;strokeColor=inherit;" vertex="1" parent="1Z-v9feT9iV5zxbu_Myu-39">
          <mxGeometry y="56" width="440" height="8" as="geometry" />
        </mxCell>
        <mxCell id="1Z-v9feT9iV5zxbu_Myu-42" value="implements" style="endArrow=block;dashed=1;endFill=0;endSize=12;html=1;rounded=0;fontSize=12;edgeStyle=orthogonalEdgeStyle;" edge="1" parent="1" source="1Z-v9feT9iV5zxbu_Myu-36" target="1Z-v9feT9iV5zxbu_Myu-39">
          <mxGeometry x="-0.2007" y="1" width="160" relative="1" as="geometry">
            <mxPoint x="-80" y="730" as="sourcePoint" />
            <mxPoint x="80" y="730" as="targetPoint" />
            <Array as="points">
              <mxPoint x="-40" y="610" />
              <mxPoint x="-40" y="610" />
            </Array>
            <mxPoint as="offset" />
          </mxGeometry>
        </mxCell>
        <mxCell id="1Z-v9feT9iV5zxbu_Myu-43" value="JwtService" style="swimlane;fontStyle=1;align=center;verticalAlign=top;childLayout=stackLayout;horizontal=1;startSize=26;horizontalStack=0;resizeParent=1;resizeParentMax=0;resizeLast=0;collapsible=1;marginBottom=0;whiteSpace=wrap;html=1;perimeterSpacing=1;swimlaneFillColor=none;gradientColor=none;swimlaneLine=1;" vertex="1" parent="1">
          <mxGeometry x="320" y="480" width="260" height="64" as="geometry" />
        </mxCell>
        <mxCell id="1Z-v9feT9iV5zxbu_Myu-44" value="+&amp;nbsp;verifyAsync(token, { secret }): CurrentUser" style="text;strokeColor=none;fillColor=none;align=left;verticalAlign=top;spacingLeft=4;spacingRight=4;overflow=hidden;rotatable=0;points=[[0,0.5],[1,0.5]];portConstraint=eastwest;whiteSpace=wrap;html=1;" vertex="1" parent="1Z-v9feT9iV5zxbu_Myu-43">
          <mxGeometry y="26" width="260" height="30" as="geometry" />
        </mxCell>
        <mxCell id="1Z-v9feT9iV5zxbu_Myu-45" value="" style="line;strokeWidth=1;fillColor=none;align=left;verticalAlign=middle;spacingTop=-1;spacingLeft=3;spacingRight=3;rotatable=0;labelPosition=right;points=[];portConstraint=eastwest;strokeColor=inherit;" vertex="1" parent="1Z-v9feT9iV5zxbu_Myu-43">
          <mxGeometry y="56" width="260" height="8" as="geometry" />
        </mxCell>
        <mxCell id="1Z-v9feT9iV5zxbu_Myu-46" style="edgeStyle=orthogonalEdgeStyle;rounded=0;orthogonalLoop=1;jettySize=auto;html=1;" edge="1" parent="1" source="1Z-v9feT9iV5zxbu_Myu-37" target="1Z-v9feT9iV5zxbu_Myu-44">
          <mxGeometry relative="1" as="geometry">
            <Array as="points">
              <mxPoint x="230" y="520" />
              <mxPoint x="230" y="520" />
            </Array>
          </mxGeometry>
        </mxCell>
        <mxCell id="1Z-v9feT9iV5zxbu_Myu-47" style="edgeStyle=orthogonalEdgeStyle;rounded=0;orthogonalLoop=1;jettySize=auto;html=1;" edge="1" parent="1" source="1Z-v9feT9iV5zxbu_Myu-44" target="1Z-v9feT9iV5zxbu_Myu-37">
          <mxGeometry relative="1" as="geometry">
            <Array as="points">
              <mxPoint x="420" y="560" />
              <mxPoint y="560" />
            </Array>
          </mxGeometry>
        </mxCell>
        <mxCell id="1Z-v9feT9iV5zxbu_Myu-48" value="&lt;div&gt;req.currentUser = ...;&lt;/div&gt;next();" style="edgeStyle=orthogonalEdgeStyle;rounded=0;orthogonalLoop=1;jettySize=auto;html=1;fontSize=12;jumpStyle=arc;jumpSize=10;" edge="1" parent="1" source="1Z-v9feT9iV5zxbu_Myu-37" target="1Z-v9feT9iV5zxbu_Myu-32">
          <mxGeometry x="0.31" y="-40" relative="1" as="geometry">
            <Array as="points">
              <mxPoint x="280" y="530" />
              <mxPoint x="280" y="639" />
            </Array>
            <mxPoint as="offset" />
          </mxGeometry>
        </mxCell>
        <mxCell id="1Z-v9feT9iV5zxbu_Myu-49" style="edgeStyle=orthogonalEdgeStyle;rounded=0;orthogonalLoop=1;jettySize=auto;html=1;dashed=1;" edge="1" parent="1" source="1Z-v9feT9iV5zxbu_Myu-32" target="1Z-v9feT9iV5zxbu_Myu-34">
          <mxGeometry relative="1" as="geometry">
            <Array as="points">
              <mxPoint x="420" y="720" />
              <mxPoint x="-380" y="720" />
            </Array>
          </mxGeometry>
        </mxCell>
        <mxCell id="1Z-v9feT9iV5zxbu_Myu-50" value="" style="endArrow=none;dashed=1;html=1;rounded=0;" edge="1" parent="1">
          <mxGeometry width="50" height="50" relative="1" as="geometry">
            <mxPoint x="-480" y="400" as="sourcePoint" />
            <mxPoint x="680" y="400" as="targetPoint" />
          </mxGeometry>
        </mxCell>
      </root>
    </mxGraphModel>
  </diagram>
</mxfile>
